<svg width="12" height="12" viewBox="0 0 12 12" fill="none" xmlns="http://www.w3.org/2000/svg">
<path d="M8.444 0.166504H3.55567C1.43234 0.166504 0.166504 1.43234 0.166504 3.55567V8.43817C0.166504 10.5673 1.43234 11.8332 3.55567 11.8332H8.43817C10.5615 11.8332 11.8273 10.5673 11.8273 8.444V3.55567C11.8332 1.43234 10.5673 0.166504 8.444 0.166504ZM9.93734 4.83317C9.93734 5.07234 9.739 5.27067 9.49984 5.27067C9.26067 5.27067 9.06234 5.07234 9.06234 4.83317V3.55567L3.55567 9.06234H4.83317C5.07234 9.06234 5.27067 9.26067 5.27067 9.49984C5.27067 9.739 5.07234 9.93734 4.83317 9.93734H2.49984C2.4415 9.93734 2.38317 9.92567 2.33067 9.90234C2.22567 9.85567 2.13817 9.774 2.0915 9.66317C2.074 9.61067 2.06234 9.55817 2.06234 9.49984V7.1665C2.06234 6.92734 2.26067 6.729 2.49984 6.729C2.739 6.729 2.93734 6.92734 2.93734 7.1665V8.444L8.444 2.93734H7.1665C6.92734 2.93734 6.729 2.739 6.729 2.49984C6.729 2.26067 6.92734 2.06234 7.1665 2.06234H9.49984C9.55817 2.06234 9.61067 2.074 9.669 2.09734C9.774 2.144 9.8615 2.22567 9.90817 2.3365C9.92567 2.389 9.93734 2.4415 9.93734 2.49984V4.83317Z" fill="#9CA3AF"/>
</svg>
