<svg width="20" height="20" viewBox="0 0 20 20" fill="none" xmlns="http://www.w3.org/2000/svg">
<path d="M16.1163 12.0748L15.283 10.6915C15.108 10.3832 14.9496 9.79984 14.9496 9.45817V7.34984C14.9496 5.3915 13.7996 3.69984 12.1413 2.90817C11.708 2.1415 10.908 1.6665 9.99129 1.6665C9.08296 1.6665 8.26629 2.15817 7.83296 2.93317C6.20796 3.7415 5.08296 5.4165 5.08296 7.34984V9.45817C5.08296 9.79984 4.92463 10.3832 4.74963 10.6832L3.90796 12.0748C3.57463 12.6332 3.49963 13.2498 3.70796 13.8165C3.90796 14.3748 4.38296 14.8082 4.99963 15.0165C6.61629 15.5665 8.31629 15.8332 10.0163 15.8332C11.7163 15.8332 13.4163 15.5665 15.033 15.0248C15.6163 14.8332 16.0663 14.3915 16.283 13.8165C16.4996 13.2415 16.4413 12.6082 16.1163 12.0748Z" fill="#9CA3AF"/>
<path d="M12.3587 16.6748C12.0087 17.6415 11.0837 18.3332 10.0004 18.3332C9.34206 18.3332 8.69206 18.0665 8.23372 17.5915C7.96706 17.3415 7.76706 17.0082 7.65039 16.6665C7.75872 16.6832 7.86706 16.6915 7.98372 16.7082C8.17539 16.7332 8.37539 16.7582 8.57539 16.7748C9.05039 16.8165 9.53372 16.8415 10.0171 16.8415C10.4921 16.8415 10.9671 16.8165 11.4337 16.7748C11.6087 16.7582 11.7837 16.7498 11.9504 16.7248C12.0837 16.7082 12.2171 16.6915 12.3587 16.6748Z" fill="#9CA3AF"/>
</svg>