<svg width="20" height="20" viewBox="0 0 20 20" fill="none" xmlns="http://www.w3.org/2000/svg">
<path d="M9.99967 0.833496C4.94884 0.833496 0.833008 4.94933 0.833008 10.0002C0.833008 15.051 4.94884 19.1668 9.99967 19.1668C15.0505 19.1668 19.1663 15.051 19.1663 10.0002C19.1663 4.94933 15.0505 0.833496 9.99967 0.833496ZM13.6663 10.6877H10.6872V13.6668C10.6872 14.0427 10.3755 14.3543 9.99967 14.3543C9.62384 14.3543 9.31217 14.0427 9.31217 13.6668V10.6877H6.33301C5.95717 10.6877 5.64551 10.376 5.64551 10.0002C5.64551 9.62433 5.95717 9.31266 6.33301 9.31266H9.31217V6.3335C9.31217 5.95766 9.62384 5.646 9.99967 5.646C10.3755 5.646 10.6872 5.95766 10.6872 6.3335V9.31266H13.6663C14.0422 9.31266 14.3538 9.62433 14.3538 10.0002C14.3538 10.376 14.0422 10.6877 13.6663 10.6877Z" fill="#7B68EE"/>
</svg>
