<svg width="32" height="32" viewBox="0 0 32 32" fill="none" xmlns="http://www.w3.org/2000/svg">
<path d="M16.0013 2.6665C12.508 2.6665 9.66797 5.5065 9.66797 8.99984C9.66797 12.4265 12.348 15.1998 15.8413 15.3198C15.948 15.3065 16.0546 15.3065 16.1346 15.3198C16.1613 15.3198 16.1746 15.3198 16.2013 15.3198C16.2146 15.3198 16.2146 15.3198 16.228 15.3198C19.6413 15.1998 22.3213 12.4265 22.3346 8.99984C22.3346 5.5065 19.4946 2.6665 16.0013 2.6665Z" fill="#22C55E"/>
<path d="M22.7733 18.88C19.0533 16.4 12.9866 16.4 9.23995 18.88C7.54661 20 6.61328 21.5334 6.61328 23.1734C6.61328 24.8134 7.54661 26.3334 9.22661 27.4534C11.0933 28.7067 13.5466 29.3334 15.9999 29.3334C18.4533 29.3334 20.9066 28.7067 22.7733 27.4534C24.4533 26.32 25.3866 24.8 25.3866 23.1467C25.3733 21.52 24.4533 19.9867 22.7733 18.88ZM19.1066 22.08L15.7466 25.44C15.5866 25.6 15.3733 25.68 15.1599 25.68C14.9466 25.68 14.7333 25.5867 14.5733 25.44L12.8933 23.76C12.5733 23.44 12.5733 22.9067 12.8933 22.5867C13.2133 22.2667 13.7466 22.2667 14.0666 22.5867L15.1599 23.68L17.9333 20.9067C18.2533 20.5867 18.7866 20.5867 19.1066 20.9067C19.4399 21.2267 19.4399 21.76 19.1066 22.08Z" fill="#22C55E"/>
</svg>
