<svg width="32" height="32" viewBox="0 0 32 32" fill="none" xmlns="http://www.w3.org/2000/svg">
<path d="M16.0013 2.6665C12.508 2.6665 9.66797 5.5065 9.66797 8.99984C9.66797 12.4265 12.348 15.1998 15.8413 15.3198C15.948 15.3065 16.0546 15.3065 16.1346 15.3198C16.1613 15.3198 16.1746 15.3198 16.2013 15.3198C16.2146 15.3198 16.2146 15.3198 16.228 15.3198C19.6413 15.1998 22.3213 12.4265 22.3346 8.99984C22.3346 5.5065 19.4946 2.6665 16.0013 2.6665Z" fill="#DC2626"/>
<path d="M22.7733 18.8668C19.0533 16.3868 12.9866 16.3868 9.23995 18.8668C7.54661 20.0002 6.61328 21.5335 6.61328 23.1735C6.61328 24.8135 7.54661 26.3335 9.22661 27.4535C11.0933 28.7068 13.5466 29.3335 15.9999 29.3335C18.4533 29.3335 20.9066 28.7068 22.7733 27.4535C24.4533 26.3202 25.3866 24.8002 25.3866 23.1468C25.3733 21.5068 24.4533 19.9868 22.7733 18.8668ZM18.5866 24.3468C18.9733 24.7335 18.9733 25.3735 18.5866 25.7602C18.3866 25.9602 18.1333 26.0535 17.8799 26.0535C17.6266 26.0535 17.3733 25.9602 17.1733 25.7602L15.9999 24.5868L14.8266 25.7602C14.6266 25.9602 14.3733 26.0535 14.1199 26.0535C13.8666 26.0535 13.6133 25.9602 13.4133 25.7602C13.0266 25.3735 13.0266 24.7335 13.4133 24.3468L14.5866 23.1735L13.4133 22.0002C13.0266 21.6135 13.0266 20.9735 13.4133 20.5868C13.7999 20.2002 14.4399 20.2002 14.8266 20.5868L15.9999 21.7602L17.1733 20.5868C17.5599 20.2002 18.1999 20.2002 18.5866 20.5868C18.9733 20.9735 18.9733 21.6135 18.5866 22.0002L17.4133 23.1735L18.5866 24.3468Z" fill="#DC2626"/>
</svg>
