<svg width="52" height="35" viewBox="0 0 52 35" fill="none" xmlns="http://www.w3.org/2000/svg">
<path d="M0 19C0 17.8954 0.895431 17 2 17C3.10457 17 4 17.8954 4 19L4 35H0L0 19Z" fill="#7B68EE"/>
<path d="M8 2C8 0.89543 8.89543 0 10 0C11.1046 0 12 0.895431 12 2L12 35H8L8 2Z" fill="#7B68EE"/>
<path d="M16 15C16 13.8954 16.8954 13 18 13C19.1046 13 20 13.8954 20 15V35H16L16 15Z" fill="#7B68EE"/>
<path d="M24 15C24 13.8954 24.8954 13 26 13C27.1046 13 28 13.8954 28 15V35H24V15Z" fill="#7B68EE"/>
<path d="M32 6C32 4.89543 32.8954 4 34 4C35.1046 4 36 4.89543 36 6V35H32V6Z" fill="#7B68EE"/>
<path d="M40 17C40 15.8954 40.8954 15 42 15C43.1046 15 44 15.8954 44 17V35H40V17Z" fill="#7B68EE"/>
<path d="M48 15C48 13.8954 48.8954 13 50 13C51.1046 13 52 13.8954 52 15V35H48V15Z" fill="#7B68EE"/>
</svg>
