<svg width="24" height="24" viewBox="0 0 24 24" fill="none" xmlns="http://www.w3.org/2000/svg">
<path d="M12 8.25C10.21 8.25 8.75 9.71 8.75 11.5C8.75 13.29 10.21 14.75 12 14.75C13.79 14.75 15.25 13.29 15.25 11.5C15.25 9.71 13.79 8.25 12 8.25ZM13 11.18C13 11.79 12.67 12.37 12.15 12.68L11.38 13.14C11.26 13.21 11.13 13.25 10.99 13.25C10.74 13.25 10.49 13.12 10.35 12.89C10.14 12.53 10.25 12.07 10.61 11.86L11.37 11.4C11.45 11.35 11.49 11.27 11.49 11.19V10.26C11.49 9.85 11.83 9.51 12.24 9.51C12.65 9.51 13 9.84 13 10.25V11.18Z" fill="#9CA3AF"/>
<path d="M18.5408 4.17014L13.0408 2.11014C12.4708 1.90014 11.5408 1.90014 10.9708 2.11014L5.47078 4.17014C4.41078 4.57014 3.55078 5.81014 3.55078 6.94014V15.0401C3.55078 15.8501 4.08078 16.9201 4.73078 17.4001L10.2308 21.5101C11.2008 22.2401 12.7908 22.2401 13.7608 21.5101L19.2608 17.4001C19.9108 16.9101 20.4408 15.8501 20.4408 15.0401V6.94014C20.4508 5.81014 19.5908 4.57014 18.5408 4.17014ZM12.0008 16.2501C9.38078 16.2501 7.25078 14.1201 7.25078 11.5001C7.25078 8.88014 9.38078 6.75014 12.0008 6.75014C14.6208 6.75014 16.7508 8.88014 16.7508 11.5001C16.7508 14.1201 14.6208 16.2501 12.0008 16.2501Z" fill="#9CA3AF"/>
</svg>
