<svg width="32" height="32" viewBox="0 0 32 32" fill="none" xmlns="http://www.w3.org/2000/svg">
<path d="M26.0145 7.79984L18.0945 3.2265C16.8012 2.47984 15.2012 2.47984 13.8945 3.2265L5.98786 7.79984C4.69453 8.5465 3.89453 9.93317 3.89453 11.4398V20.5598C3.89453 22.0532 4.69453 23.4398 5.98786 24.1998L13.9079 28.7732C15.2012 29.5198 16.8012 29.5198 18.1079 28.7732L26.0279 24.1998C27.3212 23.4532 28.1212 22.0665 28.1212 20.5598V11.4398C28.1079 9.93317 27.3079 8.55984 26.0145 7.79984ZM16.0012 9.7865C17.7212 9.7865 19.1079 11.1732 19.1079 12.8932C19.1079 14.6132 17.7212 15.9998 16.0012 15.9998C14.2812 15.9998 12.8945 14.6132 12.8945 12.8932C12.8945 11.1865 14.2812 9.7865 16.0012 9.7865ZM19.5745 22.2132H12.4279C11.3479 22.2132 10.7212 21.0132 11.3212 20.1198C12.2279 18.7732 13.9879 17.8665 16.0012 17.8665C18.0145 17.8665 19.7745 18.7732 20.6812 20.1198C21.2812 20.9998 20.6412 22.2132 19.5745 22.2132Z" fill="#F59E0B"/>
</svg>
